<?xml version="1.0" encoding="utf-8"?>
<!-- Generator: Adobe Illustrator 26.2.1, SVG Export Plug-In . SVG Version: 6.00 Build 0)  -->
<svg version="1.1" id="Livello_1" xmlns="http://www.w3.org/2000/svg" xmlns:xlink="http://www.w3.org/1999/xlink" x="0px" y="0px"
	 viewBox="0 0 1000 1000" style="enable-background:new 0 0 1000 1000;" xml:space="preserve">
<style type="text/css">
	.st0{fill:#F8AE3B;}
	.st1{fill:#46AC4C;}
	.st2{enable-background:new    ;}
	.st3{fill:#FFFFFF;}
	.st4{fill:#026634;}
	.st5{fill:#09693A;}
	.st6{fill:#076939;}
	.st7{fill:#F7AB39;}
	.st8{fill:#EE7909;}
	.st9{fill:none;stroke:#FFFFFF;stroke-width:3.2579;stroke-linecap:round;stroke-miterlimit:10;}
</style>
<g>
	<path class="st0" d="M7.06,520.89v330.15c0,56.83,23.22,110.36,62.97,148.97c32.77-1.1,836.12-1.1,861.22,0
		c39.75-38.61,62.97-92.14,62.97-148.97V520.89c0-74.19-39.58-142.75-103.83-179.84L604.48,175.97c-64.25-37.1-143.41-37.1-207.67,0
		L110.9,341.04C46.64,378.14,7.06,446.69,7.06,520.89z"/>
	<path class="st1" d="M65.79,248.8l46.38,80.32c10.42,18.05,29.68,29.17,50.53,29.17h92.75c20.84,0,40.1-11.12,50.53-29.17
		l46.38-80.32c10.42-18.05,10.42-40.29,0-58.34l-46.38-80.32c-10.42-18.05-29.68-29.17-50.53-29.17H162.7
		c-20.84,0-40.1,11.12-50.53,29.17l-46.38,80.32C55.37,208.51,55.37,230.75,65.79,248.8z"/>
	<g class="st2">
		<path class="st3" d="M170.83,913.23h-15.96l-2.79,9.03h-12.44l17.72-48.32h10.95l17.85,48.32h-12.51L170.83,913.23z
			 M157.66,904.24h10.39l-5.21-16.76L157.66,904.24z"/>
		<path class="st3" d="M228.54,916.29c-1.79,1.99-4.41,3.59-7.86,4.81c-3.45,1.22-7.23,1.83-11.35,1.83
			c-6.33,0-11.38-1.94-15.17-5.81c-3.78-3.87-5.81-9.26-6.07-16.16l-0.03-4.18c0-4.76,0.84-8.91,2.52-12.46
			c1.68-3.55,4.09-6.28,7.22-8.2c3.13-1.91,6.75-2.87,10.87-2.87c6.02,0,10.69,1.38,14.02,4.13c3.33,2.75,5.27,6.86,5.82,12.33
			h-11.22c-0.4-2.7-1.26-4.62-2.59-5.77c-1.33-1.15-3.21-1.73-5.64-1.73c-2.92,0-5.18,1.24-6.77,3.72
			c-1.59,2.48-2.4,6.02-2.42,10.62v2.92c0,4.82,0.82,8.45,2.47,10.87c1.65,2.42,4.24,3.63,7.78,3.63c3.03,0,5.29-0.67,6.77-2.02
			v-7.5h-8.1v-8h19.74V916.29z"/>
		<path class="st3" d="M253.26,905.17h-6.3v17.09h-11.65v-48.32h19.01c5.73,0,10.21,1.27,13.44,3.81c3.23,2.54,4.85,6.13,4.85,10.77
			c0,3.36-0.68,6.14-2.04,8.35s-3.49,4-6.39,5.37l10.09,19.51v0.5h-12.48L253.26,905.17z M246.95,896.21h7.37
			c2.21,0,3.88-0.58,4.99-1.75c1.12-1.17,1.68-2.79,1.68-4.87s-0.56-3.72-1.69-4.91c-1.13-1.19-2.79-1.78-4.98-1.78h-7.37V896.21z"
			/>
		<path class="st3" d="M292.05,922.26h-11.61v-48.32h11.61V922.26z"/>
		<path class="st3" d="M339.24,905.9c-0.15,3.36-1.06,6.33-2.72,8.91c-1.66,2.58-3.99,4.57-6.99,5.99c-3,1.42-6.42,2.12-10.27,2.12
			c-6.35,0-11.35-2.07-15-6.21c-3.65-4.14-5.48-9.98-5.48-17.52v-2.39c0-4.73,0.82-8.88,2.47-12.43s4.02-6.29,7.12-8.23
			c3.1-1.94,6.68-2.9,10.75-2.9c5.86,0,10.57,1.54,14.14,4.63c3.56,3.09,5.59,7.34,6.07,12.76h-11.61
			c-0.09-2.94-0.83-5.05-2.22-6.34s-3.52-1.92-6.37-1.92c-2.9,0-5.02,1.08-6.37,3.25c-1.35,2.17-2.06,5.63-2.12,10.39v3.42
			c0,5.15,0.65,8.84,1.94,11.05c1.29,2.21,3.52,3.32,6.69,3.32c2.68,0,4.72-0.63,6.14-1.89c1.42-1.26,2.17-3.26,2.26-6.01H339.24z"
			/>
		<path class="st3" d="M385.66,899.1c0,4.71-0.87,8.88-2.62,12.51c-1.75,3.63-4.23,6.42-7.45,8.38c-3.22,1.96-6.89,2.94-11,2.94
			s-7.77-0.95-10.95-2.84s-5.67-4.6-7.45-8.11c-1.78-3.52-2.72-7.55-2.8-12.11v-2.72c0-4.73,0.87-8.91,2.6-12.53
			c1.74-3.62,4.23-6.41,7.47-8.38c3.24-1.97,6.93-2.95,11.07-2.95c4.09,0,7.74,0.97,10.95,2.92c3.21,1.95,5.7,4.72,7.48,8.31
			c1.78,3.59,2.68,7.71,2.7,12.36V899.1z M373.81,897.07c0-4.8-0.8-8.45-2.41-10.93c-1.6-2.49-3.9-3.73-6.89-3.73
			c-5.84,0-8.93,4.38-9.26,13.14l-0.03,3.55c0,4.73,0.79,8.37,2.36,10.92c1.57,2.54,3.9,3.82,7,3.82c2.94,0,5.21-1.25,6.8-3.75
			c1.59-2.5,2.4-6.09,2.42-10.78V897.07z"/>
		<path class="st3" d="M403.31,913.3h20.28v8.96h-31.92v-48.32h11.65V913.3z"/>
		<path class="st3" d="M459.63,882.94h-14.5v39.32h-11.65v-39.32h-14.24v-8.99h40.38V882.94z"/>
		<path class="st3" d="M502.43,873.94v31.62c0,3.58-0.76,6.69-2.29,9.31c-1.53,2.62-3.72,4.62-6.57,5.99
			c-2.85,1.37-6.23,2.06-10.12,2.06c-5.88,0-10.52-1.53-13.9-4.58c-3.38-3.05-5.11-7.23-5.18-12.54v-31.86h11.71v32.09
			c0.13,5.29,2.59,7.93,7.37,7.93c2.41,0,4.24-0.66,5.48-1.99s1.86-3.48,1.86-6.47v-31.56H502.43z"/>
		<path class="st3" d="M527.65,905.17h-6.3v17.09H509.7v-48.32h19.01c5.73,0,10.21,1.27,13.44,3.81c3.23,2.54,4.84,6.13,4.84,10.77
			c0,3.36-0.68,6.14-2.04,8.35c-1.36,2.21-3.49,4-6.39,5.37l10.09,19.51v0.5h-12.48L527.65,905.17z M521.35,896.21h7.37
			c2.21,0,3.88-0.58,4.99-1.75c1.12-1.17,1.68-2.79,1.68-4.87s-0.56-3.72-1.69-4.91c-1.13-1.19-2.79-1.78-4.98-1.78h-7.37V896.21z"
			/>
		<path class="st3" d="M581.48,913.23h-15.96l-2.79,9.03h-12.44L568,873.94h10.95l17.85,48.32H584.3L581.48,913.23z M568.3,904.24
			h10.39l-5.21-16.76L568.3,904.24z"/>
		<path class="st3" d="M658.16,899.1c0,4.71-0.87,8.88-2.62,12.51c-1.75,3.63-4.23,6.42-7.45,8.38c-3.22,1.96-6.89,2.94-11,2.94
			c-4.12,0-7.76-0.95-10.95-2.84c-3.19-1.89-5.67-4.6-7.45-8.11c-1.78-3.52-2.72-7.55-2.8-12.11v-2.72c0-4.73,0.87-8.91,2.6-12.53
			c1.74-3.62,4.23-6.41,7.47-8.38c3.24-1.97,6.93-2.95,11.07-2.95c4.09,0,7.74,0.97,10.95,2.92s5.7,4.72,7.48,8.31
			c1.78,3.59,2.68,7.71,2.7,12.36V899.1z M646.32,897.07c0-4.8-0.8-8.45-2.41-10.93c-1.6-2.49-3.9-3.73-6.89-3.73
			c-5.84,0-8.93,4.38-9.26,13.14l-0.03,3.55c0,4.73,0.79,8.37,2.36,10.92c1.57,2.54,3.9,3.82,7,3.82c2.94,0,5.21-1.25,6.8-3.75
			c1.59-2.5,2.4-6.09,2.42-10.78V897.07z"/>
		<path class="st3" d="M704.52,922.26h-11.58l-17.12-30.06v30.06h-11.65v-48.32h11.65l17.09,30.06v-30.06h11.61V922.26z"/>
		<path class="st3" d="M723.54,913.3h20.28v8.96h-31.92v-48.32h11.65V913.3z"/>
		<path class="st3" d="M761.13,922.26h-11.61v-48.32h11.61V922.26z"/>
		<path class="st3" d="M809.58,922.26H798l-17.12-30.06v30.06h-11.65v-48.32h11.65l17.09,30.06v-30.06h11.61V922.26z"/>
		<path class="st3" d="M846.91,901.75h-18.32v11.55h21.64v8.96h-33.28v-48.32h33.35v8.99h-21.7v10.19h18.32V901.75z"/>
	</g>
	<path class="st4" d="M499.56,319.39c-8.33,0-16.63,0.41-24.92,1.22c-8.29,0.82-16.51,2.04-24.68,3.66
		c-8.17,1.62-16.23,3.65-24.2,6.06c-7.97,2.42-15.8,5.22-23.49,8.41s-15.21,6.74-22.55,10.67c-7.34,3.92-14.48,8.2-21.4,12.83
		c-6.92,4.63-13.6,9.58-20.04,14.86s-12.6,10.87-18.49,16.76c-5.89,5.89-11.47,12.05-16.76,18.49
		c-5.28,6.44-10.24,13.12-14.86,20.04c-4.63,6.92-8.9,14.06-12.83,21.4s-7.48,14.86-10.67,22.55s-5.99,15.52-8.41,23.49
		c-2.42,7.97-4.44,16.04-6.06,24.2c-1.62,8.17-2.84,16.39-3.66,24.68s-1.22,16.59-1.22,24.92s0.41,16.63,1.22,24.92
		c0.82,8.29,2.04,16.51,3.66,24.68c1.62,8.17,3.65,16.23,6.06,24.2c2.42,7.97,5.22,15.8,8.41,23.49s6.74,15.21,10.67,22.55
		s8.2,14.48,12.83,21.4c4.63,6.92,9.58,13.6,14.86,20.04s10.87,12.6,16.76,18.49s12.05,11.47,18.49,16.76
		c6.44,5.28,13.12,10.24,20.04,14.86c6.92,4.63,14.06,8.9,21.4,12.83s14.86,7.48,22.55,10.67s15.52,5.99,23.49,8.41
		s16.04,4.44,24.2,6.06c8.17,1.62,16.39,2.84,24.68,3.66c8.29,0.82,16.59,1.22,24.92,1.22c8.33,0,16.63-0.41,24.92-1.22
		c8.29-0.82,16.51-2.04,24.68-3.66s16.23-3.65,24.2-6.06c7.97-2.42,15.8-5.22,23.49-8.41s15.21-6.74,22.55-10.67
		c7.34-3.93,14.48-8.2,21.4-12.83c6.92-4.63,13.6-9.58,20.04-14.86c6.44-5.28,12.6-10.87,18.49-16.76s11.47-12.05,16.76-18.49
		c5.28-6.44,10.24-13.12,14.86-20.04c4.63-6.92,8.9-14.06,12.83-21.4s7.48-14.86,10.67-22.55s5.99-15.52,8.41-23.49
		s4.44-16.04,6.06-24.2c1.62-8.17,2.85-16.39,3.66-24.68c0.82-8.29,1.22-16.59,1.22-24.92s-0.41-16.63-1.22-24.92
		c-0.82-8.29-2.04-16.51-3.66-24.68s-3.65-16.23-6.06-24.2c-2.42-7.97-5.22-15.8-8.41-23.49s-6.74-15.21-10.67-22.55
		s-8.2-14.48-12.83-21.4c-4.63-6.92-9.58-13.6-14.86-20.04c-5.28-6.44-10.87-12.6-16.76-18.49c-5.89-5.89-12.05-11.47-18.49-16.76
		c-6.44-5.28-13.12-10.24-20.04-14.86c-6.92-4.63-14.06-8.9-21.4-12.83s-14.86-7.48-22.55-10.67s-15.52-5.99-23.49-8.41
		s-16.04-4.44-24.2-6.06c-8.17-1.62-16.39-2.84-24.68-3.66C516.19,319.8,507.88,319.39,499.56,319.39z"/>
	<g>
		<g>
			<path class="st1" d="M503.02,462.98c-1.65-6.94-2.57-14.17-2.67-21.6c-0.13-9.08,3.13-26.45,3.13-26.45
				c0.06-0.4,0.08-0.81,0.08-1.23c-0.06-4.43-3.7-7.97-8.13-7.91c-3.95,0.05-7.19,2.95-7.81,6.71c-2.16,9.08-3.49,19.35-3.35,29.1
				c0.13,9.46,1.4,18.65,3.68,27.42c1.42,3.57,2.32,5.19,4.06,8.77C492,477.79,498.36,471.49,503.02,462.98z"/>
			<path class="st1" d="M479.45,488.39c20.47-13.79,33.79-37.31,33.42-63.83c-0.07-5.25-0.67-10.36-1.74-15.29
				c-1.88-8.65-5.24-16.74-9.84-24l-0.02-0.03c-1.51-2.73-1.48-6.43,1.28-9.96c5.19-3.61,10.61-1.81,12.78,2.22l0.03,0.06
				c9.26,16.29,14.74,35,15.02,55.06c0.41,29.46-10.31,56.49-28.26,77.08l0,0l-9.68,0.13C487.86,503.46,483.54,496.28,479.45,488.39
				z"/>
			<path class="st5" d="M501.55,408.52c-3.17-4.02-11.7-4.4-13.94,3.99c-2.26,9.41-3.31,19.36-3.35,29.1
				C485.39,419.82,489.87,404.69,501.55,408.52z"/>
			<path class="st5" d="M499.91,468.05c-10.74,7.66-15.06-16.12-15.06-16.12c2.25,18.16,3.08,17.09,7.14,25.86
				C493.52,476.33,497,472.37,499.91,468.05z"/>
			<path class="st5" d="M501.21,377.61c2.57-4.38,7.47-5.27,11.16-3.18c1.76,1,2.93,2.79,4.03,4.99
				c23.4,43.06,16.49,95.74-14.46,130.37l-0.79,0.01l-11.09,0.07c41.13-32.7,43.09-108.68,22.34-130.68
				C506.76,373.2,501.21,377.61,501.21,377.61z"/>
			<path class="st1" d="M492,477.79c-6.98-13.31-11.02-28.43-11.24-44.49c-0.14-10.18,1.22-20,3.96-29.28l0.02-0.06
				c0.2-0.71,0.3-1.47,0.29-2.25c-0.06-4.43-3.7-7.97-8.13-7.91c-3.43,0.05-6.33,2.24-7.43,5.29c-3.24,10.89-4.95,22.48-4.79,34.44
				c0.27,19.95,5.62,38.64,14.78,54.87C484.19,485.17,488.37,481.63,492,477.79"/>
			<path class="st6" d="M482.76,396.24c-1.48-1.53-3.57-2.47-5.87-2.44c-3.43,0.05-6.33,2.24-7.43,5.29
				c-3.24,10.89-4.95,22.48-4.79,34.44c0.19,13.88,2.83,27.15,7.51,39.41C465.6,454.35,463.15,390.97,482.76,396.24z"/>
		</g>
		<g>
			<path class="st7" d="M498.49,503.16c42.77-0.59,77.92,33.61,78.51,76.38c0.12,8.69-1.2,17.06-3.73,24.9l-52.62,155.79
				c-2.48,7.84-9.76,13.58-18.43,13.7c-8.68,0.12-16.11-5.41-18.8-13.19l-56.89-154.29c-2.75-7.76-4.29-16.09-4.41-24.78
				C421.52,538.9,455.72,503.75,498.49,503.16z"/>
			<path class="st8" d="M559.4,645.51l-38.75,114.72c-2.48,7.84-9.76,13.58-18.43,13.7c-8.68,0.12-16.11-5.41-18.8-13.19
				C516.71,790.57,521.65,720.82,559.4,645.51z"/>
			<path class="st8" d="M498.49,503.16c-82.2,46.27-43.88,151.7-26.15,227.55l-45.82-124.26c-2.75-7.76-4.29-16.09-4.41-24.78
				C421.52,538.9,455.72,503.75,498.49,503.16z"/>
			<line class="st9" x1="576.94" y1="577.25" x2="539.99" y2="577.76"/>
			<line class="st9" x1="576.63" y1="570.86" x2="565.21" y2="571.02"/>
			<line class="st9" x1="431.94" y1="621.14" x2="465.49" y2="620.68"/>
			<line class="st9" x1="433.37" y1="627.38" x2="441.54" y2="627.27"/>
			<line class="st9" x1="550.66" y1="668.84" x2="525.09" y2="669.19"/>
			<line class="st9" x1="537.47" y1="710.43" x2="513.54" y2="710.76"/>
			<line class="st9" x1="432.68" y1="541.51" x2="464.39" y2="541.08"/>
			<line class="st9" x1="427.88" y1="547.6" x2="439.6" y2="547.44"/>
			<line class="st9" x1="477.51" y1="744.7" x2="491.44" y2="744.51"/>
			<line class="st9" x1="549.32" y1="675.34" x2="539.85" y2="675.48"/>
		</g>
	</g>
</g>
</svg>
