<?xml version="1.0" encoding="utf-8"?>
<!-- Generator: Adobe Illustrator 26.2.1, SVG Export Plug-In . SVG Version: 6.00 Build 0)  -->
<svg version="1.1" id="Livello_1" xmlns="http://www.w3.org/2000/svg" xmlns:xlink="http://www.w3.org/1999/xlink" x="0px" y="0px"
	 viewBox="0 0 1000 1000" style="enable-background:new 0 0 1000 1000;" xml:space="preserve">
<style type="text/css">
	.st0{fill:#F8AE3B;}
	.st1{fill:#46AC4C;}
	.st2{fill:#FFFFFF;}
	.st3{font-family:'Roboto-Black';}
	.st4{font-size:67.96px;}
	.st5{fill:#026634;}
	.st6{fill:#09693A;}
	.st7{fill:#076939;}
	.st8{fill:#F7AB39;}
	.st9{fill:#EE7909;}
	.st10{fill:none;stroke:#FFFFFF;stroke-width:3.2579;stroke-linecap:round;stroke-miterlimit:10;}
</style>
<g>
	<path class="st0" d="M7.06,520.89l0,330.15c0,56.83,23.22,110.36,62.97,148.97c32.77-1.1,836.12-1.1,861.22,0
		c39.75-38.61,62.97-92.14,62.97-148.97l0-330.15c0-74.19-39.58-142.75-103.83-179.84L604.48,175.97
		c-64.25-37.1-143.41-37.1-207.67,0L110.9,341.04C46.64,378.14,7.06,446.69,7.06,520.89z"/>
	<path class="st1" d="M65.79,248.8l46.38,80.32c10.42,18.05,29.68,29.17,50.53,29.17l92.75,0c20.84,0,40.1-11.12,50.53-29.17
		l46.38-80.32c10.42-18.05,10.42-40.29,0-58.34l-46.38-80.32c-10.42-18.05-29.68-29.17-50.53-29.17l-92.75,0
		c-20.84,0-40.1,11.12-50.53,29.17l-46.38,80.32C55.37,208.51,55.37,230.75,65.79,248.8z"/>
	<text transform="matrix(1 0 0 1 139.7363 922.2598)" class="st2 st3 st4">agricoltura online</text>
	<path class="st5" d="M499.56,319.39c-8.33,0-16.63,0.41-24.92,1.22c-8.29,0.82-16.51,2.04-24.68,3.66
		c-8.17,1.62-16.23,3.65-24.2,6.06c-7.97,2.42-15.8,5.22-23.49,8.41c-7.69,3.19-15.21,6.74-22.55,10.67
		c-7.34,3.92-14.48,8.2-21.4,12.83c-6.92,4.63-13.6,9.58-20.04,14.86c-6.44,5.28-12.6,10.87-18.49,16.76
		c-5.89,5.89-11.47,12.05-16.76,18.49c-5.28,6.44-10.24,13.12-14.86,20.04c-4.63,6.92-8.9,14.06-12.83,21.4
		c-3.93,7.34-7.48,14.86-10.67,22.55c-3.19,7.69-5.99,15.52-8.41,23.49c-2.42,7.97-4.44,16.04-6.06,24.2
		c-1.62,8.17-2.84,16.39-3.66,24.68c-0.82,8.29-1.22,16.59-1.22,24.92s0.41,16.63,1.22,24.92c0.82,8.29,2.04,16.51,3.66,24.68
		c1.62,8.17,3.65,16.23,6.06,24.2c2.42,7.97,5.22,15.8,8.41,23.49c3.19,7.69,6.74,15.21,10.67,22.55s8.2,14.48,12.83,21.4
		c4.63,6.92,9.58,13.6,14.86,20.04c5.28,6.44,10.87,12.6,16.76,18.49s12.05,11.47,18.49,16.76c6.44,5.28,13.12,10.24,20.04,14.86
		c6.92,4.63,14.06,8.9,21.4,12.83c7.34,3.93,14.86,7.48,22.55,10.67c7.69,3.19,15.52,5.99,23.49,8.41
		c7.97,2.42,16.04,4.44,24.2,6.06c8.17,1.62,16.39,2.84,24.68,3.66c8.29,0.82,16.59,1.22,24.92,1.22c8.33,0,16.63-0.41,24.92-1.22
		c8.29-0.82,16.51-2.04,24.68-3.66c8.17-1.62,16.23-3.65,24.2-6.06c7.97-2.42,15.8-5.22,23.49-8.41
		c7.69-3.19,15.21-6.74,22.55-10.67c7.34-3.93,14.48-8.2,21.4-12.83c6.92-4.63,13.6-9.58,20.04-14.86
		c6.44-5.28,12.6-10.87,18.49-16.76c5.89-5.89,11.47-12.05,16.76-18.49c5.28-6.44,10.24-13.12,14.86-20.04
		c4.63-6.92,8.9-14.06,12.83-21.4c3.93-7.34,7.48-14.86,10.67-22.55c3.19-7.69,5.99-15.52,8.41-23.49
		c2.42-7.97,4.44-16.04,6.06-24.2c1.62-8.17,2.85-16.39,3.66-24.68c0.82-8.29,1.22-16.59,1.22-24.92s-0.41-16.63-1.22-24.92
		c-0.82-8.29-2.04-16.51-3.66-24.68c-1.62-8.17-3.65-16.23-6.06-24.2c-2.42-7.97-5.22-15.8-8.41-23.49
		c-3.19-7.69-6.74-15.21-10.67-22.55c-3.93-7.34-8.2-14.48-12.83-21.4c-4.63-6.92-9.58-13.6-14.86-20.04
		c-5.28-6.44-10.87-12.6-16.76-18.49c-5.89-5.89-12.05-11.47-18.49-16.76c-6.44-5.28-13.12-10.24-20.04-14.86
		c-6.92-4.63-14.06-8.9-21.4-12.83c-7.34-3.93-14.86-7.48-22.55-10.67c-7.69-3.19-15.52-5.99-23.49-8.41
		c-7.97-2.42-16.04-4.44-24.2-6.06c-8.17-1.62-16.39-2.84-24.68-3.66C516.19,319.8,507.88,319.39,499.56,319.39z"/>
	<g>
		<g>
			<path class="st1" d="M503.02,462.98c-1.65-6.94-2.57-14.17-2.67-21.6c-0.13-9.08,3.13-26.45,3.13-26.45
				c0.06-0.4,0.08-0.81,0.08-1.23c-0.06-4.43-3.7-7.97-8.13-7.91c-3.95,0.05-7.19,2.95-7.81,6.71c-2.16,9.08-3.49,19.35-3.35,29.1
				c0.13,9.46,1.4,18.65,3.68,27.42c1.42,3.57,2.32,5.19,4.06,8.77C492,477.79,498.36,471.49,503.02,462.98z"/>
			<path class="st1" d="M479.45,488.39c20.47-13.79,33.79-37.31,33.42-63.83c-0.07-5.25-0.67-10.36-1.74-15.29
				c-1.88-8.65-5.24-16.74-9.84-24l-0.02-0.03c-1.51-2.73-1.48-6.43,1.28-9.96c5.19-3.61,10.61-1.81,12.78,2.22l0.03,0.06
				c9.26,16.29,14.74,35,15.02,55.06c0.41,29.46-10.31,56.49-28.26,77.08h0l-9.68,0.13C487.86,503.46,483.54,496.28,479.45,488.39z"
				/>
			<path class="st6" d="M501.55,408.52c-3.17-4.02-11.7-4.4-13.94,3.99c-2.26,9.41-3.31,19.36-3.35,29.1
				C485.39,419.82,489.87,404.69,501.55,408.52z"/>
			<path class="st6" d="M499.91,468.05c-10.74,7.66-15.06-16.12-15.06-16.12c2.25,18.16,3.08,17.09,7.14,25.86
				C493.52,476.33,497,472.37,499.91,468.05z"/>
			<path class="st6" d="M501.21,377.61c2.57-4.38,7.47-5.27,11.16-3.18c1.76,1,2.93,2.79,4.03,4.99
				c23.4,43.06,16.49,95.74-14.46,130.37l-0.79,0.01l-11.09,0.07c41.13-32.7,43.09-108.68,22.34-130.68
				C506.76,373.2,501.21,377.61,501.21,377.61z"/>
			<path class="st1" d="M492,477.79c-6.98-13.31-11.02-28.43-11.24-44.49c-0.14-10.18,1.22-20,3.96-29.28l0.02-0.06
				c0.2-0.71,0.3-1.47,0.29-2.25c-0.06-4.43-3.7-7.97-8.13-7.91c-3.43,0.05-6.33,2.24-7.43,5.29c-3.24,10.89-4.95,22.48-4.79,34.44
				c0.27,19.95,5.62,38.64,14.78,54.87C484.19,485.17,488.37,481.63,492,477.79"/>
			<path class="st7" d="M482.76,396.24c-1.48-1.53-3.57-2.47-5.87-2.44c-3.43,0.05-6.33,2.24-7.43,5.29
				c-3.24,10.89-4.95,22.48-4.79,34.44c0.19,13.88,2.83,27.15,7.51,39.41C465.6,454.35,463.15,390.97,482.76,396.24z"/>
		</g>
		<g>
			<path class="st8" d="M498.49,503.16c42.77-0.59,77.92,33.61,78.51,76.38c0.12,8.69-1.2,17.06-3.73,24.9l-52.62,155.79
				c-2.48,7.84-9.76,13.58-18.43,13.7c-8.68,0.12-16.11-5.41-18.8-13.19l-56.89-154.29c-2.75-7.76-4.29-16.09-4.41-24.78
				C421.52,538.9,455.72,503.75,498.49,503.16z"/>
			<path class="st9" d="M559.4,645.51l-38.75,114.72c-2.48,7.84-9.76,13.58-18.43,13.7c-8.68,0.12-16.11-5.41-18.8-13.19
				C516.71,790.57,521.65,720.82,559.4,645.51z"/>
			<path class="st9" d="M498.49,503.16c-82.2,46.27-43.88,151.7-26.15,227.55l-45.82-124.26c-2.75-7.76-4.29-16.09-4.41-24.78
				C421.52,538.9,455.72,503.75,498.49,503.16z"/>
			<line class="st10" x1="576.94" y1="577.25" x2="539.99" y2="577.76"/>
			<line class="st10" x1="576.63" y1="570.86" x2="565.21" y2="571.02"/>
			<line class="st10" x1="431.94" y1="621.14" x2="465.49" y2="620.68"/>
			<line class="st10" x1="433.37" y1="627.38" x2="441.54" y2="627.27"/>
			<line class="st10" x1="550.66" y1="668.84" x2="525.09" y2="669.19"/>
			<line class="st10" x1="537.47" y1="710.43" x2="513.54" y2="710.76"/>
			<line class="st10" x1="432.68" y1="541.51" x2="464.39" y2="541.08"/>
			<line class="st10" x1="427.88" y1="547.6" x2="439.6" y2="547.44"/>
			<line class="st10" x1="477.51" y1="744.7" x2="491.44" y2="744.51"/>
			<line class="st10" x1="549.32" y1="675.34" x2="539.85" y2="675.48"/>
		</g>
	</g>
</g>
</svg>
