<?xml version="1.0" encoding="utf-8"?>
<!-- Generator: Adobe Illustrator 26.3.1, SVG Export Plug-In . SVG Version: 6.00 Build 0)  -->
<svg version="1.1" id="Livello_1" xmlns="http://www.w3.org/2000/svg" xmlns:xlink="http://www.w3.org/1999/xlink" x="0px" y="0px"
	 viewBox="0 0 600 600" style="enable-background:new 0 0 600 600;" xml:space="preserve">
<style type="text/css">
	.st0{fill:#F7AC39;}
	.st1{fill:#FFFFFF;}
	.st2{fill:#00682E;}
</style>
<g>
	<g>
		<path class="st0" d="M282.75,0.48c11.18,0,22.36,0,33.55,0c4.81,2.33,10.14,1.67,15.15,2.12c34.76,3.14,67.64,12.89,98.85,28.07
			c44.32,21.56,81.21,52.31,110.45,92.04c31.25,42.47,49.71,89.98,56.18,142.32c0.85,6.86-0.47,13.93,2.12,20.58
			c0,9.58,0,19.17,0,28.75c-2.66,6.84-1.23,14.12-2.16,21.18c-4.21,32.05-12.57,62.85-26.44,92.03
			c-17.31,36.41-40.87,68.19-71.06,95.09c-19.16,17.07-39.88,31.76-62.67,43.49c-29.11,14.98-59.89,24.78-92.25,29.85
			c-8.18,1.28-16.59,0.93-24.58,3.49c-13.98,0-27.96,0-41.93,0c-0.84-1.05-2.04-1.05-3.24-1.2c-10.06-1.26-20.22-1.99-30.14-3.95
			C179,581.4,123.3,550.79,78.13,501.16c-22.09-24.27-39.8-51.24-52.87-81.27C14.39,394.93,6.9,369.03,3.32,341.97
			c-0.95-7.2-0.95-14.6-3.32-21.6c0-10.38,0-20.77,0-31.15c1.4-1.48,1.11-3.35,1.11-5.11c0.01-11.98,1.51-23.82,3.67-35.55
			C17.09,181.47,48.06,124.72,98.46,78.5c26.16-24,55.81-42.21,88.41-55.75c23.05-9.57,46.97-16.05,71.87-18.98
			C266.74,2.82,274.94,2.96,282.75,0.48z"/>
	</g>
	<g>
		<path class="st1" d="M483.77,139.04c0.75,0.28,2.01,0.42,2.15,0.89c0.26,0.84-0.08,1.91-0.32,2.85c-0.72,2.75-1.58,5.47-2.27,8.23
			c-0.85,3.37-1.52,6.79-2.37,10.16c-0.83,3.3-1.8,6.57-2.68,9.85c-0.66,2.46-1.31,4.92-1.88,7.39c-0.82,3.51-1.47,7.06-2.36,10.55
			c-1.34,5.28-2.86,10.52-4.22,15.8c-0.82,3.19-1.48,6.41-2.23,9.62c-0.15,0.64-0.39,1.25-0.69,2.17c-0.81-0.6-1.44-0.96-1.95-1.45
			c-4.65-4.4-9.3-8.81-13.91-13.26c-0.93-0.9-1.59-1.03-2.65-0.08c-4.5,4-9.09,7.9-13.65,11.83c-6.21,5.35-12.43,10.7-18.65,16.05
			c-6.16,5.31-12.31,10.62-18.47,15.93c-6.4,5.52-12.82,11.01-19.21,16.55c-4.93,4.27-9.8,8.61-14.72,12.88
			c-4.08,3.54-8.21,7.02-12.31,10.54c-5.61,4.81-11.15,9.69-16.82,14.42c-5.19,4.33-12.7,4.16-18.03,0.35
			c-4.44-3.18-8.96-6.23-13.46-9.32c-4.71-3.23-9.42-6.44-14.15-9.64c-5.44-3.69-10.91-7.33-16.33-11.04
			c-5.37-3.68-10.69-7.44-16.06-11.12c-3.68-2.52-7.43-4.96-11.13-7.46c-1.28-0.87-2.55-1.77-3.77-2.71
			c-1.83-1.42-2.78-1.33-4.49,0.27c-5.72,5.35-11.49,10.65-17.23,15.98c-6.6,6.13-13.19,12.29-19.79,18.42
			c-6.92,6.43-13.86,12.83-20.79,19.25c-5.64,5.23-11.27,10.48-16.9,15.72c-4.46,4.15-8.86,8.36-13.39,12.44
			c-3.55,3.19-7.79,5.01-12.52,3.85c-3-0.74-5.82-2.41-8.59-3.91c-3.59-1.95-7-4.23-10.56-6.23c-2.75-1.55-4.48-3.24-4.33-6.92
			c0.35-8.27,0.09-16.56,0.13-24.85c0-0.99,0.3-1.98,0.53-3.32c3.27,1.96,6.13,3.67,8.99,5.39c3.35,2.01,6.69,4.03,10.03,6.05
			c0.95,0.58,1.84,1.45,2.86,1.67c0.95,0.21,2.38,0.09,3.03-0.51c8.44-7.7,16.78-15.5,25.14-23.29c7.73-7.2,15.42-14.43,23.16-21.62
			c6.42-5.96,12.9-11.87,19.33-17.82c7.02-6.5,14.05-12.99,20.99-19.57c4.22-4,9.19-5.31,14.63-3.75c2.6,0.74,4.95,2.53,7.27,4.07
			c6.36,4.22,12.64,8.54,18.94,12.85c5.32,3.65,10.6,7.35,15.92,11.01c2.76,1.9,5.56,3.73,8.33,5.62
			c5.48,3.74,10.95,7.49,16.43,11.23c4.56,3.11,9.12,6.22,13.67,9.34c1.48,1.02,2.75,0.7,4.04-0.42
			c6.43-5.58,12.89-11.12,19.32-16.69c5.53-4.8,11.02-9.65,16.56-14.44c6.86-5.93,13.77-11.81,20.63-17.74
			c4.98-4.3,9.93-8.64,14.91-12.94c4.19-3.61,8.41-7.18,12.6-10.78c5.74-4.94,11.47-9.9,17.18-14.88c1.4-1.22,1.37-2.1,0.04-3.38
			c-5.32-5.15-10.65-10.28-15.98-15.42c-0.31-0.3-0.65-0.59-0.94-0.91c-1.45-1.63-1.17-2.33,0.89-2.88c5.33-1.44,10.62-3,15.94-4.49
			c3.05-0.85,6.13-1.62,9.17-2.49c4.77-1.37,9.53-2.8,14.3-4.19c2.98-0.86,5.97-1.67,8.95-2.52c5.02-1.43,10.04-2.88,15.06-4.3
			C476.66,141.46,484.13,138.74,483.77,139.04z"/>
		<path class="st2" d="M441.31,221.26c0.09,1.03,0.18,1.62,0.18,2.21c0,78.09,0,156.18-0.01,234.27c0,0.37-0.03,0.75,0,1.12
			c0.13,1.67-0.47,2.15-2.27,2.13c-14.34-0.11-28.68-0.07-43.01-0.08c-3.54,0-3.59-0.05-3.59-3.51c0-62.9,0-125.79,0-188.69
			c0-0.62,0.03-1.25-0.01-1.87c-0.14-2.22,0.46-3.97,2.31-5.51c7.12-5.93,14.13-11.99,21.14-18.05c4.86-4.2,9.63-8.5,14.46-12.73
			C433.98,227.52,437.49,224.55,441.31,221.26z"/>
		<path class="st2" d="M240.09,260.89c5.22,3.46,10.32,6.79,15.36,10.19c2.6,1.75,5.14,3.6,7.69,5.42c1.21,0.87,1.56,2.07,1.56,3.56
			c-0.03,58.4-0.03,116.81-0.03,175.21c0,1.25-0.02,2.49,0.01,3.74c0.04,1.32-0.51,1.92-1.88,1.92c-14.9-0.03-29.79-0.05-44.69-0.01
			c-1.91,0.01-2.06-0.99-2.05-2.49c0.03-16.44,0.02-32.88,0.02-49.31c0-41.16,0.02-82.31-0.06-123.47c0-1.92,0.71-3.17,1.96-4.33
			C225.32,274.53,232.68,267.74,240.09,260.89z"/>
		<path class="st2" d="M351.19,299.49c0.1,1.08,0.21,1.73,0.21,2.38c0.01,52.12,0.01,104.23,0,156.35c0,2.6-0.09,2.67-2.78,2.67
			c-14.4,0-28.8,0-43.2,0c-2.53,0-2.61-0.07-2.61-2.64c0-50.62,0-101.24,0-151.87c0-0.79,0.07-1.57,0.11-2.69
			c2.83,1.98,5.32,3.86,7.94,5.53c1.64,1.05,3.53,1.7,5.21,2.69c4.28,2.51,8.94,1.51,13.46,1.45c4.02-0.05,7.47-2,10.53-4.41
			C343.76,306.05,347.22,302.89,351.19,299.49z"/>
		<path class="st2" d="M162.13,333.14c0.11,1.17,0.24,1.88,0.24,2.6c0.01,40.84,0.01,81.68,0,122.52c0,2.53-0.13,2.64-2.62,2.64
			c-14.4,0-28.79,0-43.19,0c-2.65,0-2.75-0.09-2.75-2.71c0-40.15,0-80.31,0.02-120.46c0-0.74,0.36-1.47,0.55-2.21
			c0.76,0.33,1.55,0.59,2.26,1.01c2.29,1.33,4.54,2.72,6.82,4.06c1.16,0.68,2.33,1.34,3.54,1.92c1.98,0.95,3.97,1.9,6.01,2.71
			c0.9,0.36,1.93,0.48,2.91,0.53c1.93,0.08,3.88,0.18,5.79-0.02c1.42-0.15,2.81-0.72,4.18-1.2c1.55-0.54,3.22-0.95,4.54-1.85
			c2.76-1.9,5.34-4.07,7.96-6.18C159.57,335.55,160.62,334.5,162.13,333.14z"/>
	</g>
</g>
</svg>
