<?xml version="1.0" encoding="utf-8"?>
<!-- Generator: Adobe Illustrator 26.2.1, SVG Export Plug-In . SVG Version: 6.00 Build 0)  -->
<svg version="1.1" id="Livello_1" xmlns="http://www.w3.org/2000/svg" xmlns:xlink="http://www.w3.org/1999/xlink" x="0px" y="0px"
	 viewBox="0 0 1000 1000" style="enable-background:new 0 0 1000 1000;" xml:space="preserve">
<style type="text/css">
	.st0{fill:#026634;}
	.st1{fill:#F7AB39;}
</style>
<path class="st0" d="M268.25,488.81l0-302.91c0-68.07,36.32-130.97,95.27-165.01L399.69,0L1000,0l0,699.26L816.38,805.27
	c-58.95,34.04-131.58,34.04-190.53,0L363.51,653.81C304.56,619.78,268.25,556.88,268.25,488.81z"/>
<path class="st1" d="M490.6,936.19l-60.43-114.47c-13.58-25.72-12.4-56.74,3.08-81.36l68.92-109.56
	c15.49-24.62,42.93-39.11,72-38.01l129.34,4.9c29.07,1.1,55.34,17.63,68.92,43.35l60.43,114.47c13.58,25.72,12.4,56.74-3.08,81.36
	l-68.92,109.56c-15.49,24.62-42.93,39.11-72,38.01l-129.34-4.9C530.45,978.44,504.18,961.91,490.6,936.19z"/>
</svg>
